<?xml version="1.0" encoding="UTF-8" standalone="no"?>
<!-- Created with Inkscape (http://www.inkscape.org/) -->

<svg
   width="107.91631mm"
   height="105.69375mm"
   viewBox="0 0 107.91631 105.69375"
   version="1.1"
   id="svg5"
   inkscape:version="1.2.1 (9c6d41e410, 2022-07-14)"
   sodipodi:docname="community_yard-logo.svg"
   inkscape:export-filename="community_yard-logo.png"
   inkscape:export-xdpi="96"
   inkscape:export-ydpi="96"
   xmlns:inkscape="http://www.inkscape.org/namespaces/inkscape"
   xmlns:sodipodi="http://sodipodi.sourceforge.net/DTD/sodipodi-0.dtd"
   xmlns="http://www.w3.org/2000/svg"
   xmlns:svg="http://www.w3.org/2000/svg">
  <sodipodi:namedview
     id="namedview7"
     pagecolor="#ffffff"
     bordercolor="#000000"
     borderopacity="0.25"
     inkscape:showpageshadow="2"
     inkscape:pageopacity="0.0"
     inkscape:pagecheckerboard="0"
     inkscape:deskcolor="#d1d1d1"
     inkscape:document-units="mm"
     showgrid="false"
     inkscape:zoom="1.0444209"
     inkscape:cx="149.8438"
     inkscape:cy="256.12279"
     inkscape:window-width="1920"
     inkscape:window-height="1010"
     inkscape:window-x="3833"
     inkscape:window-y="-6"
     inkscape:window-maximized="1"
     inkscape:current-layer="layer2" />
  <defs
     id="defs2">
    <rect
       x="182.79874"
       y="218.00443"
       width="378.32712"
       height="55.868603"
       id="rect1859" />
    <rect
       x="101.55486"
       y="100.20079"
       width="239.66946"
       height="109.67925"
       id="rect236" />
    <filter
       style="color-interpolation-filters:sRGB"
       inkscape:label="Drop Shadow"
       id="filter5882"
       x="-0.023685111"
       y="-0.059389721"
       width="1.066763"
       height="1.1674061">
      <feFlood
         flood-opacity="0.498039"
         flood-color="rgb(0,0,0)"
         result="flood"
         id="feFlood5872" />
      <feComposite
         in="flood"
         in2="SourceGraphic"
         operator="in"
         result="composite1"
         id="feComposite5874" />
      <feGaussianBlur
         in="composite1"
         stdDeviation="1"
         result="blur"
         id="feGaussianBlur5876" />
      <feOffset
         dx="2.2"
         dy="2.2"
         result="offset"
         id="feOffset5878" />
      <feComposite
         in="SourceGraphic"
         in2="offset"
         operator="over"
         result="composite2"
         id="feComposite5880" />
    </filter>
    <rect
       x="182.79874"
       y="218.00443"
       width="378.32712"
       height="55.868603"
       id="rect7269" />
    <rect
       x="182.79874"
       y="218.00443"
       width="378.32712"
       height="55.868603"
       id="rect7371" />
    <rect
       x="182.79874"
       y="218.00443"
       width="378.32712"
       height="55.868603"
       id="rect7377" />
  </defs>
  <g
     inkscape:label="Layer 1"
     inkscape:groupmode="layer"
     id="layer1"
     transform="translate(-44.050042,-19.592828)">
    <rect
       style="opacity:1;fill:none;fill-opacity:1;stroke:#000000;stroke-width:0;stroke-linecap:round;stroke-dasharray:none;stroke-opacity:1"
       id="rect1800"
       width="105.69375"
       height="105.69375"
       x="45.16132"
       y="19.592829" />
    <circle
       style="opacity:1;fill:#5127e6;fill-opacity:0.501961;stroke:#000000;stroke-width:0;stroke-linecap:round;stroke-dasharray:none;stroke-opacity:1"
       id="path1854"
       cx="98.008194"
       cy="72.439705"
       r="43.708084" />
  </g>
  <g
     inkscape:groupmode="layer"
     id="layer2"
     inkscape:label="Text"
     transform="translate(-44.050042,-19.592828)">
    <g
       aria-label="community"
       transform="matrix(0.34640676,0,0,0.35059774,-32.999506,-25.494987)"
       id="text1857"
       style="font-size:45.3333px;font-family:Comfortaa;-inkscape-font-specification:Comfortaa;letter-spacing:4.25186px;word-spacing:0px;white-space:pre;shape-inside:url(#rect1859);display:inline;opacity:1;fill:#eeeeee;stroke:#eeeeee;stroke-width:0.573895;stroke-linecap:round;filter:url(#filter5882)" />
    <g
       aria-label="yard"
       transform="matrix(0.34640676,0,0,0.35059774,-31.412853,-7.3960101)"
       id="text7267"
       style="font-size:45.3333px;font-family:Comfortaa;-inkscape-font-specification:Comfortaa;letter-spacing:4.25186px;word-spacing:0px;white-space:pre;shape-inside:url(#rect7269);display:inline;opacity:1;fill:#eeeeee;stroke:#eeeeee;stroke-width:0.573895;stroke-linecap:round;filter:url(#filter5882)">
      <path
         id="path7443"
         style="text-align:center;text-anchor:middle"
         d="m 416.62968,265.60235 q -3.58133,0 -6.43733,-1.632 -2.856,-1.67733 -4.53333,-4.53333 -1.632,-2.85599 -1.632,-6.48266 0,-3.58133 1.58667,-6.43733 1.63199,-2.856 4.39733,-4.48799 2.76533,-1.67734 6.25599,-1.67734 3.03733,0 5.48533,1.31467 2.448,1.26933 3.944,3.4 v -13.32799 q 0,-0.816 0.49866,-1.26934 0.49867,-0.49866 1.26934,-0.49866 0.77066,0 1.26933,0.49866 0.49867,0.45334 0.49867,1.26934 v 21.39731 q -0.0907,3.536 -1.768,6.392 -1.632,2.81066 -4.488,4.44266 -2.81066,1.632 -6.34666,1.632 z m 0,-3.17333 q 2.62933,0 4.66933,-1.224 2.08533,-1.26933 3.264,-3.4 1.22399,-2.13066 1.22399,-4.85066 0,-2.67466 -1.22399,-4.80533 -1.17867,-2.176 -3.264,-3.4 -2.04,-1.224 -4.66933,-1.224 -2.584,0 -4.66933,1.224 -2.08533,1.224 -3.30933,3.4 -1.224,2.13067 -1.224,4.80533 0,2.72 1.224,4.85066 1.224,2.13067 3.30933,3.4 2.08533,1.224 4.66933,1.224 z m -33.03847,-12.33066 q 0.136,-2.81066 1.45066,-5.03199 1.36,-2.22134 3.49067,-3.49067 2.17599,-1.26933 4.80533,-1.26933 2.08533,0 3.21866,0.58933 1.13333,0.58934 0.86133,1.72267 -0.18133,0.68 -0.63466,0.90666 -0.408,0.22667 -1.04267,0.18134 -0.58933,-0.0453 -1.36,-0.0907 -2.53866,-0.22667 -4.53333,0.544 -1.94933,0.72533 -3.128,2.26667 -1.13333,1.54133 -1.13333,3.67199 z m 0.272,15.27733 q -0.816,0 -1.26934,-0.45334 -0.45333,-0.45333 -0.45333,-1.26933 v -21.35198 q 0,-0.816 0.45333,-1.26934 0.45334,-0.45333 1.26934,-0.45333 0.816,0 1.26933,0.45333 0.45333,0.45334 0.45333,1.26934 v 21.35198 q 0,0.816 -0.45333,1.26933 -0.45333,0.45334 -1.26933,0.45334 z m -25.73985,0.22666 q -3.49066,0 -6.256,-1.632 -2.76533,-1.67733 -4.39733,-4.53333 -1.58666,-2.85599 -1.58666,-6.43733 0,-3.62666 1.632,-6.48266 1.67733,-2.856 4.53333,-4.48799 2.856,-1.67734 6.43733,-1.67734 3.58133,0 6.39199,1.67734 2.856,1.63199 4.488,4.48799 1.67733,2.856 1.72266,6.48266 l -1.40533,1.088 q 0,3.264 -1.54133,5.89333 -1.496,2.584 -4.12533,4.12533 -2.584,1.496 -5.89333,1.496 z m 0.36267,-3.17333 q 2.62933,0 4.66933,-1.224 2.08533,-1.224 3.26399,-3.35466 1.224,-2.176 1.224,-4.85067 0,-2.71999 -1.224,-4.85066 -1.17866,-2.13066 -3.26399,-3.35466 -2.04,-1.26934 -4.66933,-1.26934 -2.584,0 -4.66933,1.26934 -2.08534,1.224 -3.30933,3.35466 -1.224,2.13067 -1.224,4.85066 0,2.67467 1.224,4.85067 1.22399,2.13066 3.30933,3.35466 2.08533,1.224 4.66933,1.224 z m 10.83466,2.94667 q -0.77067,0 -1.26934,-0.45334 -0.49866,-0.49866 -0.49866,-1.26933 v -7.75199 l 0.86133,-3.58134 2.67466,0.68 v 10.65333 q 0,0.77067 -0.49866,1.26933 -0.49867,0.45334 -1.26933,0.45334 z m -46.04916,10.78932 q -0.36267,0 -0.816,-0.18133 -1.54133,-0.68 -0.86134,-2.176 l 14.64266,-32.27731 q 0.68,-1.45067 2.176,-0.816 1.54133,0.63467 0.86133,2.13066 l -14.68799,32.27732 q -0.45333,1.04266 -1.31466,1.04266 z m 5.03199,-11.55999 q -0.68,0.31733 -1.26933,0.136 -0.58933,-0.22667 -0.952,-0.90667 l -10.10932,-20.94398 q -0.31734,-0.68 -0.0907,-1.26933 0.22667,-0.58934 0.90666,-0.90667 0.68,-0.31733 1.26934,-0.0907 0.58933,0.18134 0.90666,0.86134 l 9.928,20.94398 q 0.36266,0.68 0.22666,1.26933 -0.136,0.58934 -0.816,0.90667 z M 500.58433,229.0698 q -0.36267,0 -0.816,-0.18133 -1.54134,-0.68 -0.86134,-2.176 l 14.64266,-32.27731 q 0.68,-1.45067 2.176,-0.816 1.54133,0.63467 0.86133,2.13066 l -14.68799,32.27732 q -0.45333,1.04266 -1.31466,1.04266 z m 5.03199,-11.55999 q -0.68,0.31733 -1.26933,0.136 -0.58933,-0.22667 -0.952,-0.90667 l -10.10933,-20.94398 q -0.31733,-0.68 -0.0907,-1.26933 0.22666,-0.58934 0.90666,-0.90667 0.68,-0.31733 1.26934,-0.0907 0.58933,0.18134 0.90666,0.86134 l 9.928,20.94398 q 0.36266,0.68 0.22666,1.26933 -0.136,0.58934 -0.816,0.90667 z m -22.06786,0.77067 q -2.40266,0 -4.30666,-1.13334 -1.85867,-1.13333 -2.94667,-3.08266 -1.088,-1.99467 -1.088,-4.53333 v -22.16799 q 0,-0.77066 0.45334,-1.26933 0.49866,-0.49866 1.26933,-0.49866 0.77067,0 1.26933,0.49866 0.49867,0.49867 0.49867,1.26933 v 22.16799 q 0,2.312 1.36,3.808 1.36,1.45066 3.49066,1.45066 h 1.224 q 0.72533,0 1.17867,0.49867 0.45333,0.49866 0.45333,1.26933 0,0.77067 -0.544,1.26933 -0.544,0.45334 -1.36,0.45334 z m -11.28799,-20.85332 q -0.68,0 -1.13333,-0.408 -0.45334,-0.45334 -0.45334,-1.088 0,-0.68 0.45334,-1.088 0.45333,-0.45333 1.13333,-0.45333 h 11.55999 q 0.68,0 1.13333,0.45333 0.45334,0.408 0.45334,1.088 0,0.63466 -0.45334,1.088 -0.45333,0.408 -1.13333,0.408 z m -13.27317,20.85332 q -0.816,0 -1.31466,-0.45334 -0.45334,-0.49866 -0.45334,-1.31466 v -21.26132 q 0,-0.816 0.45334,-1.26933 0.49866,-0.49867 1.31466,-0.49867 0.77067,0 1.224,0.49867 0.49867,0.45333 0.49867,1.26933 v 21.26132 q 0,0.816 -0.49867,1.31466 -0.45333,0.45334 -1.224,0.45334 z M 458.942,188.7685 q -0.99733,0 -1.72267,-0.72534 -0.72533,-0.72533 -0.72533,-1.768 0,-1.13333 0.72533,-1.76799 0.77067,-0.68 1.768,-0.68 0.952,0 1.67733,0.68 0.77067,0.63466 0.77067,1.76799 0,1.04267 -0.72533,1.768 -0.72534,0.72534 -1.768,0.72534 z m -16.12922,29.51198 q -0.77066,0 -1.26933,-0.49867 -0.49866,-0.49867 -0.49866,-1.224 v -11.78666 q 0,-2.81066 -1.088,-4.62399 -1.04267,-1.81334 -2.90134,-2.72 -1.81333,-0.90667 -4.12533,-0.90667 -2.22133,0 -4.03466,0.86133 -1.768,0.86134 -2.81066,2.35734 -1.04267,1.49599 -1.04267,3.39999 h -2.49333 q 0.0907,-2.85599 1.54133,-5.07733 1.45067,-2.26666 3.85333,-3.53599 2.40267,-1.31467 5.34933,-1.31467 3.21867,0 5.75733,1.36 2.53866,1.31466 3.98933,3.89866 1.496,2.584 1.496,6.30133 v 11.78666 q 0,0.72533 -0.49867,1.224 -0.49866,0.49867 -1.224,0.49867 z m -19.49332,0 q -0.816,0 -1.31466,-0.45334 -0.45333,-0.49866 -0.45333,-1.26933 v -21.30665 q 0,-0.816 0.45333,-1.26933 0.49866,-0.49867 1.31466,-0.49867 0.77067,0 1.224,0.49867 0.49867,0.45333 0.49867,1.26933 v 21.30665 q 0,0.77067 -0.49867,1.26933 -0.45333,0.45334 -1.224,0.45334 z m -25.92119,0.272 q -3.21866,0 -5.75733,-1.31467 -2.53866,-1.36 -4.03466,-3.944 -1.45067,-2.584 -1.45067,-6.30133 v -11.78665 q 0,-0.72534 0.49867,-1.224 0.49867,-0.49867 1.224,-0.49867 0.77066,0 1.26933,0.49867 0.49867,0.49866 0.49867,1.224 v 11.78665 q 0,2.81067 1.04266,4.624 1.088,1.81333 2.90133,2.72 1.85867,0.90666 4.17067,0.90666 2.22133,0 3.98933,-0.86133 1.81333,-0.86133 2.856,-2.35733 1.04266,-1.496 1.04266,-3.4 h 2.49333 q -0.136,2.856 -1.58666,5.12267 -1.40533,2.22133 -3.808,3.53599 -2.40266,1.26934 -5.34933,1.26934 z m 9.97333,-0.272 q -0.77067,0 -1.26933,-0.45334 -0.45334,-0.49866 -0.45334,-1.31466 v -21.30665 q 0,-0.77067 0.45334,-1.224 0.49866,-0.49867 1.26933,-0.49867 0.77066,0 1.26933,0.49867 0.49867,0.45333 0.49867,1.224 v 21.30665 q 0,0.816 -0.49867,1.31466 -0.49867,0.45334 -1.26933,0.45334 z m -34.44386,0 q -0.77066,0 -1.26933,-0.45334 -0.49866,-0.49866 -0.49866,-1.26933 v -13.05599 q 0,-3.21866 -1.67734,-5.07733 -1.67733,-1.904 -4.30666,-1.904 -2.81066,0 -4.624,1.904 -1.768,1.85867 -1.72266,4.98666 h -3.128 q 0.0453,-3.03733 1.31467,-5.34933 1.26933,-2.312 3.49066,-3.58133 2.22133,-1.26933 5.032,-1.26933 2.67466,0 4.71466,1.26933 2.08533,1.26933 3.21866,3.58133 1.17867,2.312 1.17867,5.44 v 13.05599 q 0,0.77067 -0.49867,1.26933 -0.45333,0.45334 -1.224,0.45334 z m -31.73331,0 q -0.816,0 -1.31466,-0.45334 -0.45333,-0.49866 -0.45333,-1.26933 v -21.30665 q 0,-0.77067 0.45333,-1.26933 0.49866,-0.49867 1.31466,-0.49867 0.77067,0 1.224,0.49867 0.49867,0.49866 0.49867,1.26933 v 21.30665 q 0,0.77067 -0.49867,1.26933 -0.45333,0.45334 -1.224,0.45334 z m 15.91199,0 q -0.77066,0 -1.26933,-0.45334 -0.49867,-0.49866 -0.49867,-1.26933 v -13.05599 q 0,-3.21866 -1.67733,-5.07733 -1.67733,-1.904 -4.30666,-1.904 -2.81067,0 -4.624,1.85867 -1.81333,1.81333 -1.81333,4.75999 h -2.49333 q 0.0907,-2.90133 1.26933,-5.12266 1.224,-2.26667 3.30933,-3.536 2.08533,-1.26933 4.71466,-1.26933 2.67467,0 4.71467,1.26933 2.08533,1.26933 3.21866,3.58133 1.17867,2.312 1.17867,5.44 v 13.05599 q 0,0.77067 -0.49867,1.26933 -0.45333,0.45334 -1.224,0.45334 z m -31.3612,0 q -0.77067,0 -1.26933,-0.45334 -0.49867,-0.49866 -0.49867,-1.26933 v -13.05599 q 0,-3.21866 -1.67733,-5.07733 -1.67733,-1.904 -4.30667,-1.904 -2.81066,0 -4.62399,1.904 -1.768,1.85867 -1.72267,4.98666 h -3.128 q 0.0453,-3.03733 1.31467,-5.34933 1.26933,-2.312 3.49066,-3.58133 2.22134,-1.26933 5.032,-1.26933 2.67467,0 4.71466,1.26933 2.08534,1.26933 3.21867,3.58133 1.17866,2.312 1.17866,5.44 v 13.05599 q 0,0.77067 -0.49866,1.26933 -0.45333,0.45334 -1.224,0.45334 z m -31.73331,0 q -0.816,0 -1.31467,-0.45334 -0.45333,-0.49866 -0.45333,-1.26933 v -21.30665 q 0,-0.77067 0.45333,-1.26933 0.49867,-0.49867 1.31467,-0.49867 0.77066,0 1.224,0.49867 0.49866,0.49866 0.49866,1.26933 v 21.30665 q 0,0.77067 -0.49866,1.26933 -0.45334,0.45334 -1.224,0.45334 z m 15.91199,0 q -0.77067,0 -1.26934,-0.45334 -0.49866,-0.49866 -0.49866,-1.26933 v -13.05599 q 0,-3.21866 -1.67733,-5.07733 -1.67734,-1.904 -4.30667,-1.904 -2.81066,0 -4.62399,1.85867 -1.81334,1.81333 -1.81334,4.75999 h -2.49333 q 0.0907,-2.90133 1.26933,-5.12266 1.224,-2.26667 3.30934,-3.536 2.08533,-1.26933 4.71466,-1.26933 2.67466,0 4.71466,1.26933 2.08533,1.26933 3.21867,3.58133 1.17866,2.312 1.17866,5.44 v 13.05599 q 0,0.77067 -0.49866,1.26933 -0.45334,0.45334 -1.224,0.45334 z m -41.3345,0.22666 q -3.62667,0 -6.48267,-1.632 -2.85599,-1.632 -4.48799,-4.48799 -1.632,-2.856 -1.632,-6.48267 0,-3.67199 1.632,-6.52799 1.632,-2.856 4.48799,-4.488 2.856,-1.632 6.48267,-1.632 3.62666,0 6.43733,1.632 2.85599,1.632 4.48799,4.488 1.632,2.856 1.67733,6.52799 0,3.62667 -1.67733,6.48267 -1.632,2.85599 -4.48799,4.48799 -2.81067,1.632 -6.43733,1.632 z m 0,-3.17333 q 2.62933,0 4.71466,-1.224 2.08533,-1.224 3.264,-3.35466 1.17866,-2.13067 1.17866,-4.85067 0,-2.71999 -1.17866,-4.85066 -1.17867,-2.176 -3.264,-3.4 -2.08533,-1.224 -4.71466,-1.224 -2.62933,0 -4.71467,1.224 -2.08533,1.224 -3.30933,3.4 -1.17866,2.13067 -1.17866,4.85066 0,2.72 1.17866,4.85067 1.224,2.13066 3.30933,3.35466 2.08534,1.224 4.71467,1.224 z m -31.45181,3.17333 q -3.58133,0 -6.392,-1.632 -2.76533,-1.67733 -4.39733,-4.53333 -1.58666,-2.85599 -1.58666,-6.43733 0,-3.62666 1.54133,-6.48266 1.54133,-2.856 4.21599,-4.48799 2.67467,-1.67734 6.16533,-1.67734 2.76534,0 5.07733,1.088 2.35734,1.088 4.12533,3.264 0.49867,0.544 0.36267,1.17867 -0.136,0.58933 -0.77067,1.04266 -0.49866,0.36267 -1.13333,0.272 -0.58933,-0.136 -1.04266,-0.68 -2.62934,-2.992 -6.61867,-2.992 -2.53866,0 -4.48799,1.224 -1.904,1.224 -2.992,3.35467 -1.04267,2.13066 -1.04267,4.89599 0,2.72 1.13334,4.85067 1.13333,2.13066 3.17333,3.35466 2.04,1.224 4.66933,1.224 1.768,0 3.21866,-0.45333 1.496,-0.49867 2.62933,-1.496 0.544,-0.45333 1.13334,-0.49867 0.58933,-0.0453 1.08799,0.36267 0.544,0.49867 0.58934,1.13333 0.0907,0.63467 -0.408,1.088 -3.30933,3.03733 -8.25066,3.03733 z" />
    </g>
    <text
       xml:space="preserve"
       transform="matrix(0.34640676,0,0,0.35059774,-162.89121,-33.854882)"
       id="text7369"
       style="font-style:normal;font-variant:normal;font-weight:normal;font-stretch:normal;font-size:45.3333px;font-family:Comfortaa;-inkscape-font-specification:Comfortaa;letter-spacing:4.25186px;word-spacing:0px;white-space:pre;shape-inside:url(#rect7371);display:inline;opacity:1;fill:#eeeeee;fill-opacity:1;stroke:#eeeeee;stroke-width:0.573895;stroke-linecap:round;stroke-dasharray:none;stroke-opacity:1;filter:url(#filter5882)"
       x="130.10849"
       y="0"><tspan
         x="312.77083"
         y="259.48998"
         id="tspan7526"><tspan
           style="text-align:center;text-anchor:middle"
           id="tspan7524">yard</tspan></tspan></text>
    <text
       xml:space="preserve"
       transform="matrix(0.34640676,0,0,0.35059774,-177.03087,-54.627957)"
       id="text7375"
       style="font-style:normal;font-variant:normal;font-weight:normal;font-stretch:normal;font-size:45.3333px;font-family:Comfortaa;-inkscape-font-specification:Comfortaa;letter-spacing:4.25186px;word-spacing:0px;white-space:pre;shape-inside:url(#rect7377);display:inline;opacity:1;fill:#eeeeee;fill-opacity:1;stroke:#eeeeee;stroke-width:0.573895;stroke-linecap:round;stroke-dasharray:none;stroke-opacity:1;filter:url(#filter5882)"
       x="130.10849"
       y="0"><tspan
         x="224.41721"
         y="259.48998"
         id="tspan7530"><tspan
           style="text-align:center;text-anchor:middle"
           id="tspan7528">community</tspan></tspan></text>
  </g>
</svg>
